<mxfile host="Electron" agent="Mozilla/5.0 (X11; Linux x86_64) AppleWebKit/537.36 (KHTML, like Gecko) draw.io/24.7.8 Chrome/128.0.6613.36 Electron/32.0.1 Safari/537.36" version="24.7.8">
  <diagram name="PÃ¡gina-1" id="VIEm5ZmVCX5_zCgq2JY0">
    <mxGraphModel dx="1106" dy="512" grid="1" gridSize="10" guides="1" tooltips="1" connect="1" arrows="1" fold="1" page="1" pageScale="1" pageWidth="827" pageHeight="1169" math="0" shadow="0">
      <root>
        <mxCell id="0" />
        <mxCell id="1" parent="0" />
        <mxCell id="yo8w7ZFDSKZTNPRzVTo--1" value="&lt;u&gt;:ValidarCampos&lt;/u&gt;" style="html=1;whiteSpace=wrap;" vertex="1" parent="1">
          <mxGeometry x="990" y="10" width="110" height="50" as="geometry" />
        </mxCell>
        <mxCell id="yo8w7ZFDSKZTNPRzVTo--2" value="" style="html=1;points=[[0,0,0,0,5],[0,1,0,0,-5],[1,0,0,0,5],[1,1,0,0,-5]];perimeter=orthogonalPerimeter;outlineConnect=0;targetShapes=umlLifeline;portConstraint=eastwest;newEdgeStyle={&quot;curved&quot;:0,&quot;rounded&quot;:0};" vertex="1" parent="1">
          <mxGeometry x="1040" y="110" width="10" height="80" as="geometry" />
        </mxCell>
        <mxCell id="yo8w7ZFDSKZTNPRzVTo--3" value="modificarPrecioAnuncio(idAnuncio, nuevoPrecio)" style="html=1;verticalAlign=bottom;startArrow=oval;endArrow=block;startSize=8;curved=0;rounded=0;entryX=0;entryY=0;entryDx=0;entryDy=5;" edge="1" parent="1" target="yo8w7ZFDSKZTNPRzVTo--2">
          <mxGeometry relative="1" as="geometry">
            <mxPoint x="820" y="115" as="sourcePoint" />
          </mxGeometry>
        </mxCell>
        <mxCell id="yo8w7ZFDSKZTNPRzVTo--4" value="obtenerAnuncio(idAnuncio)" style="html=1;verticalAlign=bottom;startArrow=oval;endArrow=block;startSize=8;curved=0;rounded=0;entryX=0;entryY=0;entryDx=0;entryDy=5;" edge="1" parent="1" target="yo8w7ZFDSKZTNPRzVTo--17">
          <mxGeometry relative="1" as="geometry">
            <mxPoint x="1050" y="155" as="sourcePoint" />
          </mxGeometry>
        </mxCell>
        <mxCell id="yo8w7ZFDSKZTNPRzVTo--5" value="&lt;u&gt;:ServicioAnuncios&lt;/u&gt;" style="html=1;whiteSpace=wrap;" vertex="1" parent="1">
          <mxGeometry x="1250" y="50" width="110" height="50" as="geometry" />
        </mxCell>
        <mxCell id="yo8w7ZFDSKZTNPRzVTo--6" value="" style="html=1;points=[[0,0,0,0,5],[0,1,0,0,-5],[1,0,0,0,5],[1,1,0,0,-5]];perimeter=orthogonalPerimeter;outlineConnect=0;targetShapes=umlLifeline;portConstraint=eastwest;newEdgeStyle={&quot;curved&quot;:0,&quot;rounded&quot;:0};" vertex="1" parent="1">
          <mxGeometry x="1510" y="180" width="10" height="80" as="geometry" />
        </mxCell>
        <mxCell id="yo8w7ZFDSKZTNPRzVTo--7" value="actualIzarAnuncio(Anuncio)" style="html=1;verticalAlign=bottom;startArrow=oval;endArrow=block;startSize=8;curved=0;rounded=0;entryX=0;entryY=0;entryDx=0;entryDy=5;" edge="1" parent="1" source="yo8w7ZFDSKZTNPRzVTo--17" target="yo8w7ZFDSKZTNPRzVTo--6">
          <mxGeometry relative="1" as="geometry">
            <mxPoint x="1300" y="190" as="sourcePoint" />
            <mxPoint as="offset" />
          </mxGeometry>
        </mxCell>
        <mxCell id="yo8w7ZFDSKZTNPRzVTo--8" value="&lt;u&gt;:ServicioAnuncios&lt;/u&gt;" style="html=1;whiteSpace=wrap;" vertex="1" parent="1">
          <mxGeometry x="1440" y="80" width="120" height="50" as="geometry" />
        </mxCell>
        <mxCell id="yo8w7ZFDSKZTNPRzVTo--12" value="" style="endArrow=none;dashed=1;html=1;rounded=0;entryX=0.548;entryY=1.02;entryDx=0;entryDy=0;entryPerimeter=0;" edge="1" parent="1" source="yo8w7ZFDSKZTNPRzVTo--2" target="yo8w7ZFDSKZTNPRzVTo--1">
          <mxGeometry width="50" height="50" relative="1" as="geometry">
            <mxPoint x="1200" y="190" as="sourcePoint" />
            <mxPoint x="1250" y="140" as="targetPoint" />
          </mxGeometry>
        </mxCell>
        <mxCell id="yo8w7ZFDSKZTNPRzVTo--13" value="" style="endArrow=none;dashed=1;html=1;rounded=0;entryX=0.415;entryY=0.98;entryDx=0;entryDy=0;entryPerimeter=0;" edge="1" parent="1" source="yo8w7ZFDSKZTNPRzVTo--17" target="yo8w7ZFDSKZTNPRzVTo--5">
          <mxGeometry width="50" height="50" relative="1" as="geometry">
            <mxPoint x="1050" y="120" as="sourcePoint" />
            <mxPoint x="1050" y="31" as="targetPoint" />
          </mxGeometry>
        </mxCell>
        <mxCell id="yo8w7ZFDSKZTNPRzVTo--14" value="" style="endArrow=none;dashed=1;html=1;rounded=0;entryX=0.585;entryY=0.98;entryDx=0;entryDy=0;entryPerimeter=0;exitX=0;exitY=0;exitDx=0;exitDy=5;exitPerimeter=0;" edge="1" parent="1" source="yo8w7ZFDSKZTNPRzVTo--6" target="yo8w7ZFDSKZTNPRzVTo--8">
          <mxGeometry width="50" height="50" relative="1" as="geometry">
            <mxPoint x="1490" y="180" as="sourcePoint" />
            <mxPoint x="1484.67" y="105" as="targetPoint" />
          </mxGeometry>
        </mxCell>
        <mxCell id="yo8w7ZFDSKZTNPRzVTo--16" value="" style="html=1;verticalAlign=bottom;startArrow=oval;endArrow=block;startSize=8;curved=0;rounded=0;entryX=0;entryY=0;entryDx=0;entryDy=5;" edge="1" parent="1" target="yo8w7ZFDSKZTNPRzVTo--17">
          <mxGeometry relative="1" as="geometry">
            <mxPoint x="1300" y="190" as="sourcePoint" />
            <mxPoint as="offset" />
            <mxPoint x="1480" y="190" as="targetPoint" />
          </mxGeometry>
        </mxCell>
        <mxCell id="yo8w7ZFDSKZTNPRzVTo--17" value="" style="html=1;points=[[0,0,0,0,5],[0,1,0,0,-5],[1,0,0,0,5],[1,1,0,0,-5]];perimeter=orthogonalPerimeter;outlineConnect=0;targetShapes=umlLifeline;portConstraint=eastwest;newEdgeStyle={&quot;curved&quot;:0,&quot;rounded&quot;:0};" vertex="1" parent="1">
          <mxGeometry x="1290" y="150" width="10" height="80" as="geometry" />
        </mxCell>
      </root>
    </mxGraphModel>
  </diagram>
</mxfile>
